<?xml version="1.0" standalone="no"?>
<!DOCTYPE svg PUBLIC "-//W3C//DTD SVG 20010904//EN"
 "http://www.w3.org/TR/2001/REC-SVG-20010904/DTD/svg10.dtd">
<svg version="1.0" xmlns="http://www.w3.org/2000/svg"
 width="280.000000pt" height="280.000000pt" viewBox="0 0 280.000000 280.000000"
 preserveAspectRatio="xMidYMid meet">
<metadata>
Created by potrace 1.14, written by Peter Selinger 2001-2017
</metadata>
<g transform="translate(0.000000,280.000000) scale(0.100000,-0.100000)"
fill="#000000" stroke="none">
<path d="M190 1365 l0 -775 175 0 175 0 0 290 0 290 78 0 79 0 174 -290 174
-290 208 0 209 0 -20 33 c-10 17 -96 153 -191 300 -94 148 -171 272 -171 275
0 4 26 18 57 31 69 30 160 113 196 178 73 136 76 358 6 495 -34 66 -116 145
-183 178 -114 54 -176 60 -591 60 l-375 0 0 -775z m760 469 c47 -27 77 -74 85
-134 19 -136 -36 -236 -141 -260 -21 -5 -110 -10 -196 -10 l-158 0 0 216 0
216 188 -4 c167 -3 191 -5 222 -24z"/>
<path d="M1805 2108 c-6 -36 -185 -1495 -185 -1509 0 -5 218 -9 488 -9 l489 0
16 137 c10 76 17 141 17 146 0 4 -139 7 -310 7 l-310 0 0 23 c0 22 134 1128
146 1200 l6 37 -176 0 -175 0 -6 -32z"/>
</g>
</svg>
